{"accessors" : [{"bufferView" : 0, "byteOffset" : 0, "componentType" : 5125, "count" : 2936892, "type" : "SCALAR", "max" : [2936891], "min" : [0]}, {"bufferView" : 1, "byteOffset" : 0, "componentType" : 5126, "count" : 2936892, "type" : "VEC3", "max" : [0.23564423620700836, 0.25862812995910645, 0.12513071298599243], "min" : [-0.24035575985908508, -0.2853933572769165, -0.16200557351112366]}, {"bufferView" : 1, "byteOffset" : 12, "componentType" : 5126, "count" : 2936892, "type" : "VEC4", "max" : [1, 1, 1, 1], "min" : [0, 0, 0, 1]}], "asset" : {"generator" : "Aspose.3D 20.7.1", "version" : "2.0"}, "buffers" : [{"uri" : "buffer.bin", "byteLength" : 93980552}], "bufferViews" : [{"buffer" : 0, "byteOffset" : 0, "byteLength" : 11747568, "target" : 34963}, {"buffer" : 0, "byteOffset" : 11747572, "byteLength" : 82232976, "byteStride" : 28, "target" : 34962}], "materials" : [{"pbrMetallicRoughness" : {"baseColorFactor" : [1, 1, 1, 1], "metallicFactor" : 0, "roughnessFactor" : 1}, "emissiveFactor" : [0, 0, 0], "alphaMode" : "OPAQUE", "doubleSided" : true}], "meshes" : [{"primitives" : [{"attributes" : {"POSITION" : 1, "COLOR" : 2}, "indices" : 0, "material" : 0, "mode" : 4}]}], "nodes" : [{"mesh" : 0}], "scene" : 0, "scenes" : [{"nodes" : [0]}]}